<?xml version="1.0" encoding="utf-8"?>
<!-- Generator: Adobe Illustrator 19.2.1, SVG Export Plug-In . SVG Version: 6.00 Build 0)  -->
<svg version="1.1" id="Layer_1" xmlns="http://www.w3.org/2000/svg" xmlns:xlink="http://www.w3.org/1999/xlink" x="0px" y="0px"
	 viewBox="0 0 64 64" style="enable-background:new 0 0 64 64;" xml:space="preserve">
<metadata><?xpacket begin="﻿" id="W5M0MpCehiHzreSzNTczkc9d"?>
<x:xmpmeta xmlns:x="adobe:ns:meta/" x:xmptk="Adobe XMP Core 5.6-c111 79.158366, 2015/09/25-01:12:00        ">
   <rdf:RDF xmlns:rdf="http://www.w3.org/1999/02/22-rdf-syntax-ns#">
      <rdf:Description rdf:about=""/>
   </rdf:RDF>
</x:xmpmeta>
                                                                                                    
                                                                                                    
                                                                                                    
                                                                                                    
                                                                                                    
                                                                                                    
                                                                                                    
                                                                                                    
                                                                                                    
                                                                                                    
                                                                                                    
                                                                                                    
                                                                                                    
                                                                                                    
                                                                                                    
                                                                                                    
                                                                                                    
                                                                                                    
                                                                                                    
                                                                                                    
                           
<?xpacket end="w"?></metadata>
<style type="text/css">
	.st0{fill:none;}
	.st1{fill:#5B554D;}
</style>
<rect class="st0" width="64" height="64"/>
<g>
	<g>
		<path class="st1" d="M60.3,56.5H3.7c-1.5,0-2.7-1.2-2.7-2.7V16.7c0-1.5,1.2-2.7,2.7-2.7h56.5c1.5,0,2.7,1.2,2.7,2.7v37.1
			C63,55.3,61.8,56.5,60.3,56.5z M3.7,15.8c-0.5,0-0.9,0.4-0.9,0.9v37.1c0,0.5,0.4,0.9,0.9,0.9h56.5c0.5,0,0.9-0.4,0.9-0.9V16.7
			c0-0.5-0.4-0.9-0.9-0.9H3.7z"/>
	</g>
	<g>
		<path class="st1" d="M54.7,14.7c-0.5,0-0.9-0.4-0.9-0.9V9.9c0-0.3-0.3-0.6-0.6-0.6H41.7c-0.3,0-0.6,0.2-0.6,0.6v3.9
			c0,0.5-0.4,0.9-0.9,0.9c-0.5,0-0.9-0.4-0.9-0.9V9.9c0-1.3,1.1-2.4,2.4-2.4h11.5c1.3,0,2.4,1.1,2.4,2.4v3.9
			C55.6,14.3,55.2,14.7,54.7,14.7z"/>
	</g>
	<g>
		<path class="st1" d="M32,53.7c-10,0-18.1-8.1-18.1-18.1c0-10,8.1-18.1,18.1-18.1c10,0,18.1,8.1,18.1,18.1
			C50.1,45.6,42,53.7,32,53.7z M32,19.4c-9,0-16.3,7.3-16.3,16.2c0,8.9,7.3,16.2,16.3,16.2c9,0,16.3-7.3,16.3-16.2
			C48.3,26.7,41,19.4,32,19.4z"/>
	</g>
	<g>
		<path class="st1" d="M32,44.8c-5.1,0-9.2-4.1-9.2-9.2c0-5,4.1-9.2,9.2-9.2c5.1,0,9.2,4.1,9.2,9.2C41.2,40.7,37.1,44.8,32,44.8z
			 M32,28.3c-4,0-7.3,3.3-7.3,7.3c0,4,3.3,7.3,7.3,7.3c4,0,7.3-3.3,7.3-7.3C39.3,31.6,36,28.3,32,28.3z"/>
	</g>
	<g>
		<path class="st1" d="M62.1,25.4H45.3c-0.5,0-0.9-0.4-0.9-0.9c0-0.5,0.4-0.9,0.9-0.9h16.8c0.5,0,0.9,0.4,0.9,0.9
			C63,25,62.6,25.4,62.1,25.4z"/>
	</g>
	<g>
		<path class="st1" d="M62.1,45.8H46.6c-0.5,0-0.9-0.4-0.9-0.9s0.4-0.9,0.9-0.9h15.5c0.5,0,0.9,0.4,0.9,0.9S62.6,45.8,62.1,45.8z"/>
	</g>
	<g>
		<path class="st1" d="M18.7,25.4H1.9C1.4,25.4,1,25,1,24.5c0-0.5,0.4-0.9,0.9-0.9h16.8c0.5,0,0.9,0.4,0.9,0.9
			C19.6,25,19.2,25.4,18.7,25.4z"/>
	</g>
	<g>
		<path class="st1" d="M17,45.8H1.9c-0.5,0-0.9-0.4-0.9-0.9s0.4-0.9,0.9-0.9H17c0.5,0,0.9,0.4,0.9,0.9S17.5,45.8,17,45.8z"/>
	</g>
</g>
</svg>
