<?xml version="1.0" encoding="utf-8"?>
<!-- Generator: Adobe Illustrator 19.2.1, SVG Export Plug-In . SVG Version: 6.00 Build 0)  -->
<svg version="1.1" id="Layer_1" xmlns="http://www.w3.org/2000/svg" xmlns:xlink="http://www.w3.org/1999/xlink" x="0px" y="0px"
	 viewBox="0 0 64 64" style="enable-background:new 0 0 64 64;" xml:space="preserve">
<metadata><?xpacket begin="﻿" id="W5M0MpCehiHzreSzNTczkc9d"?>
<x:xmpmeta xmlns:x="adobe:ns:meta/" x:xmptk="Adobe XMP Core 5.6-c111 79.158366, 2015/09/25-01:12:00        ">
   <rdf:RDF xmlns:rdf="http://www.w3.org/1999/02/22-rdf-syntax-ns#">
      <rdf:Description rdf:about=""/>
   </rdf:RDF>
</x:xmpmeta>
                                                                                                    
                                                                                                    
                                                                                                    
                                                                                                    
                                                                                                    
                                                                                                    
                                                                                                    
                                                                                                    
                                                                                                    
                                                                                                    
                                                                                                    
                                                                                                    
                                                                                                    
                                                                                                    
                                                                                                    
                                                                                                    
                                                                                                    
                                                                                                    
                                                                                                    
                                                                                                    
                           
<?xpacket end="w"?></metadata>
<style type="text/css">
	.st0{fill:none;}
	.st1{fill:#5B554D;}
</style>
<rect class="st0" width="64" height="64"/>
<g>
	<g>
		<path class="st1" d="M56.4,30.1c-0.5,0-0.9-0.4-0.9-0.9C55.4,17.3,44.5,7,32,7C19.4,7,8.5,17.3,8.5,29.1c0,0.5-0.4,0.9-0.9,0.9
			s-0.9-0.4-0.9-0.9c0-12.8,11.9-24,25.4-24c13.5,0,25.4,11.2,25.4,24C57.3,29.7,56.9,30.1,56.4,30.1z"/>
	</g>
	<g>
		<g>
			<path class="st1" d="M7.3,58.9c-0.3,0-0.6-0.1-0.8-0.4C5.2,57,4,55.1,3,52.9c-1.1-2.6-1.7-5.4-2-8.3c-0.2-3,0-5.8,0.7-8.5
				c0.6-2.3,1.5-4.4,2.7-6.2c0.2-0.3,0.5-0.4,0.8-0.4c3.2,0,4.3,0,4.8,0.1c1.5,0.2,2.5,1.3,2.6,3.2l1.6,20.9
				c0.1,1.3-0.3,2.5-1.1,3.2c-0.7,0.6-1.6,1-2.6,1c-0.3,0.5-0.9,0.9-1.6,0.9L7.3,58.9C7.4,58.9,7.3,58.9,7.3,58.9z M5.8,31.3
				c-0.9,1.5-1.7,3.2-2.2,5.2C3,38.9,2.7,41.7,3,44.4c0.2,2.8,0.8,5.4,1.8,7.8C5.6,54,6.5,55.6,7.7,57l1.1-0.1
				c0-0.3,0.2-0.6,0.4-0.7c0.2-0.2,0.5-0.3,0.8-0.2c0.8,0.1,1.4-0.1,1.8-0.4c0.4-0.4,0.6-1,0.6-1.8l-1.6-20.9
				c-0.1-1.4-0.8-1.4-1.1-1.5c-0.1,0-0.2,0-0.3-0.1C9,31.3,7.3,31.3,5.8,31.3z"/>
		</g>
		<g>
			<path class="st1" d="M9.7,57.9c-0.4,0-0.8-0.3-0.9-0.7c-1-3.5-4.1-15.6-0.8-26.9c0.1-0.5,0.7-0.8,1.2-0.6
				c0.5,0.1,0.8,0.7,0.6,1.2c-3.1,10.8-0.1,22.5,0.8,25.9c0.1,0.5-0.1,1-0.6,1.2C9.9,57.9,9.8,57.9,9.7,57.9z"/>
		</g>
	</g>
	<g>
		<g>
			<path class="st1" d="M56.7,58.9C56.7,58.9,56.6,58.9,56.7,58.9l-1.6-0.1c-0.7-0.1-1.3-0.4-1.6-0.9c-1,0-1.9-0.4-2.6-1
				c-0.8-0.8-1.2-1.9-1.1-3.2l1.6-20.9c0.1-1.8,1.1-3,2.6-3.2c0.5-0.1,1.6-0.2,4.8-0.1c0.3,0,0.6,0.2,0.8,0.4
				c1.2,1.8,2.1,3.8,2.7,6.2c0.7,2.7,0.9,5.6,0.7,8.5c-0.2,3-0.9,5.8-2,8.3c-0.9,2.2-2.1,4.1-3.6,5.7C57.2,58.8,57,58.9,56.7,58.9z
				 M54.1,55.9c0.2,0,0.5,0.1,0.7,0.2c0.2,0.2,0.4,0.4,0.4,0.7l1.2,0.1c1.2-1.4,2.2-3,2.9-4.8c1-2.4,1.6-5,1.8-7.8
				c0.2-2.7,0-5.5-0.7-7.9c-0.5-1.9-1.2-3.7-2.2-5.2c-1.6,0-3.2,0-3.7,0c-0.1,0-0.2,0-0.3,0.1c-0.3,0-1,0.1-1.1,1.5l-1.6,20.9
				c-0.1,0.7,0.1,1.4,0.6,1.8c0.4,0.4,1,0.5,1.7,0.5C54,55.9,54,55.9,54.1,55.9z"/>
		</g>
		<g>
			<path class="st1" d="M54.3,57.9c-0.1,0-0.2,0-0.3,0c-0.5-0.1-0.8-0.7-0.6-1.2c0.7-2.4,4-14.8,0.8-25.9c-0.1-0.5,0.1-1,0.6-1.2
				c0.5-0.1,1,0.1,1.2,0.6c3.2,11.3,0.2,23.4-0.8,26.9C55.1,57.7,54.7,57.9,54.3,57.9z"/>
		</g>
	</g>
</g>
</svg>
