<?xml version="1.0" encoding="utf-8"?>
<!-- Generator: Adobe Illustrator 19.2.1, SVG Export Plug-In . SVG Version: 6.00 Build 0)  -->
<svg version="1.1" id="Layer_1" xmlns="http://www.w3.org/2000/svg" xmlns:xlink="http://www.w3.org/1999/xlink" x="0px" y="0px"
	 viewBox="0 0 64 64" style="enable-background:new 0 0 64 64;" xml:space="preserve">
<metadata><?xpacket begin="﻿" id="W5M0MpCehiHzreSzNTczkc9d"?>
<x:xmpmeta xmlns:x="adobe:ns:meta/" x:xmptk="Adobe XMP Core 5.6-c111 79.158366, 2015/09/25-01:12:00        ">
   <rdf:RDF xmlns:rdf="http://www.w3.org/1999/02/22-rdf-syntax-ns#">
      <rdf:Description rdf:about=""/>
   </rdf:RDF>
</x:xmpmeta>
                                                                                                    
                                                                                                    
                                                                                                    
                                                                                                    
                                                                                                    
                                                                                                    
                                                                                                    
                                                                                                    
                                                                                                    
                                                                                                    
                                                                                                    
                                                                                                    
                                                                                                    
                                                                                                    
                                                                                                    
                                                                                                    
                                                                                                    
                                                                                                    
                                                                                                    
                                                                                                    
                           
<?xpacket end="w"?></metadata>
<style type="text/css">
	.st0{fill:none;}
	.st1{fill:#5B554D;}
</style>
<rect class="st0" width="64" height="64"/>
<g>
	<g>
		<path class="st1" d="M46.3,60.9h-8.8c-0.4,0-0.8-0.3-0.8-0.8V46.7h-9.4v13.4c0,0.4-0.3,0.8-0.8,0.8h-8.8c-3.4,0-6.2-2.8-6.2-6.2
			V31.2c0-0.4,0.3-0.8,0.8-0.8c0.4,0,0.8,0.3,0.8,0.8v23.5c0,2.6,2.1,4.7,4.7,4.7h8.1V45.9c0-0.4,0.3-0.8,0.8-0.8h11
			c0.4,0,0.8,0.3,0.8,0.8v13.4h8c2.6,0,4.7-2.1,4.7-4.7V31.2c0-0.4,0.3-0.8,0.8-0.8c0.4,0,0.8,0.3,0.8,0.8v23.5
			C52.5,58.1,49.7,60.9,46.3,60.9z"/>
	</g>
	<g>
		<path class="st1" d="M58.5,31.9c-0.1,0-0.2,0-0.4,0c-0.1,0-0.3-0.1-0.4-0.1L32,13.2L6.2,31.8c-0.1,0.1-0.2,0.1-0.4,0.1
			c-1.3,0.1-2.5-0.4-3.2-1.4l-1-1.4c-0.5-0.7-0.8-1.7-0.6-2.6c0.1-0.9,0.6-1.7,1.4-2.3L29.3,4.9c1.1-0.8,2-1.5,2.2-1.6
			c0,0,0,0,0.1,0c0.3-0.2,0.7-0.2,0.9,0c0,0,0.1,0.1,0.1,0.1l0,0c0.1,0.1,0.7,0.5,1.5,1.1l7.8,5.7c1.2,0.9,11.2,8.1,12.4,8.9
			l7.3,5.2c0,0,0,0,0,0c1.6,1.1,1.9,3.3,0.8,4.9l-1,1.4C60.7,31.4,59.6,31.9,58.5,31.9z M58.5,30.4c0.6,0,1.2-0.3,1.6-0.8l1-1.4
			c0.6-0.9,0.4-2.1-0.4-2.7l-7.3-5.2c-1.2-0.9-11.2-8.1-12.4-8.9l-7.8-5.7C32.6,5.3,32.3,5,32,4.8c-0.3,0.3-0.9,0.7-1.8,1.3
			L3.4,25.5c-0.4,0.3-0.7,0.8-0.8,1.3c-0.1,0.5,0,1,0.3,1.4l1,1.4c0.4,0.5,0.9,0.8,1.6,0.8l26-18.8c0.3-0.2,0.7-0.2,0.9,0l0,0
			L58.5,30.4z M32,12.2L32,12.2L32,12.2z"/>
	</g>
	<g>
		<path class="st1" d="M53.8,20.4c-0.2,0-0.3,0-0.5-0.1c-1.4-1-2.5-3.2-2.5-4.9V6.7c0-1.1-0.9-1.9-1.9-1.9h-2.6
			c-1.1,0-1.9,0.9-1.9,1.9v2.9c0,1-0.4,1.8-1.1,2.1c-0.7,0.3-1.5,0.2-2.4-0.4c-0.3-0.3-0.4-0.7-0.2-1.1c0.3-0.3,0.7-0.4,1.1-0.2
			c0.4,0.3,0.6,0.3,0.8,0.3c0.1-0.1,0.2-0.3,0.2-0.8V6.7c0-1.9,1.6-3.5,3.5-3.5h2.6c1.9,0,3.5,1.6,3.5,3.5v8.6
			c0,1.2,0.9,2.9,1.9,3.7c0.3,0.3,0.4,0.7,0.2,1.1C54.3,20.3,54.1,20.4,53.8,20.4z"/>
	</g>
</g>
</svg>
