<?xml version="1.0" encoding="utf-8"?>
<!-- Generator: Adobe Illustrator 19.2.1, SVG Export Plug-In . SVG Version: 6.00 Build 0)  -->
<svg version="1.1" id="Layer_1" xmlns="http://www.w3.org/2000/svg" xmlns:xlink="http://www.w3.org/1999/xlink" x="0px" y="0px"
	 viewBox="0 0 64 64" style="enable-background:new 0 0 64 64;" xml:space="preserve">
<metadata><?xpacket begin="﻿" id="W5M0MpCehiHzreSzNTczkc9d"?>
<x:xmpmeta xmlns:x="adobe:ns:meta/" x:xmptk="Adobe XMP Core 5.6-c111 79.158366, 2015/09/25-01:12:00        ">
   <rdf:RDF xmlns:rdf="http://www.w3.org/1999/02/22-rdf-syntax-ns#">
      <rdf:Description rdf:about=""/>
   </rdf:RDF>
</x:xmpmeta>
                                                                                                    
                                                                                                    
                                                                                                    
                                                                                                    
                                                                                                    
                                                                                                    
                                                                                                    
                                                                                                    
                                                                                                    
                                                                                                    
                                                                                                    
                                                                                                    
                                                                                                    
                                                                                                    
                                                                                                    
                                                                                                    
                                                                                                    
                                                                                                    
                                                                                                    
                                                                                                    
                           
<?xpacket end="w"?></metadata>
<style type="text/css">
	.st0{fill:none;}
	.st1{fill:#5B554D;}
</style>
<rect class="st0" width="64" height="64"/>
<g>
	<g>
		<g>
			<path class="st1" d="M54.4,32.2c-0.9,0-1.1-0.9-1.6-3.4c-0.6-3.1-4.4-4.3-8.3-5.5c-3.7-1.2-7.6-2.4-8.7-5.5
				c-0.2-0.5,0.1-1.1,0.6-1.2c0.5-0.2,1.1,0.1,1.2,0.6c0.8,2.3,4,3.3,7.4,4.3c3.1,1,6.5,2,8.3,4.3c-0.4-6.9-2.2-12-12.6-16.4
				c-3.1-1.3-5-2.7-5.1-5.5c0-1.5,0-2,0-2c0-0.5,0.5-0.9,1-0.9c0.5,0,0.9,0.5,0.9,1c0,0,0,0.5,0,1.8c0,1.6,1,2.5,3.9,3.8
				C54.1,13,55.2,19.5,55.5,28c0.1,3.5,0.1,4.1-0.9,4.2C54.5,32.2,54.4,32.2,54.4,32.2z"/>
		</g>
	</g>
	<g>
		<path class="st1" d="M19.4,63c-1,0-2-0.1-3-0.3c-3.5-0.7-6.1-2.5-7.3-5.2c-2.3-5.4,2.1-12.5,9.8-15.8c3.7-1.6,7.6-2.1,10.9-1.4
			c3.5,0.7,6.1,2.5,7.3,5.2c1.2,2.7,0.7,5.8-1.2,8.9c-1.9,2.9-4.9,5.4-8.6,7C24.7,62.4,22,63,19.4,63z M26.8,41.9
			c-2.3,0-4.8,0.5-7.2,1.5c-6.7,2.9-10.6,8.8-8.7,13.3c0.9,2.1,3,3.5,5.8,4.1c3,0.6,6.5,0.1,9.8-1.3c3.3-1.4,6.1-3.6,7.7-6.2
			c1.6-2.5,1.9-5,1.1-7c0,0,0,0,0,0c-0.9-2.1-3-3.5-5.8-4.1C28.6,42,27.7,41.9,26.8,41.9z"/>
	</g>
	<g>
		<path class="st1" d="M36.7,49.6c-0.5,0-1-0.4-1-1l0-46.9h1.9l0,46.9C37.7,49.1,37.3,49.6,36.7,49.6z"/>
	</g>
</g>
</svg>
