<?xml version="1.0" encoding="utf-8"?>
<!-- Generator: Adobe Illustrator 19.2.1, SVG Export Plug-In . SVG Version: 6.00 Build 0)  -->
<svg version="1.1" id="Layer_1" xmlns="http://www.w3.org/2000/svg" xmlns:xlink="http://www.w3.org/1999/xlink" x="0px" y="0px"
	 viewBox="0 0 64 64" style="enable-background:new 0 0 64 64;" xml:space="preserve">
<metadata><?xpacket begin="﻿" id="W5M0MpCehiHzreSzNTczkc9d"?>
<x:xmpmeta xmlns:x="adobe:ns:meta/" x:xmptk="Adobe XMP Core 5.6-c111 79.158366, 2015/09/25-01:12:00        ">
   <rdf:RDF xmlns:rdf="http://www.w3.org/1999/02/22-rdf-syntax-ns#">
      <rdf:Description rdf:about=""/>
   </rdf:RDF>
</x:xmpmeta>
                                                                                                    
                                                                                                    
                                                                                                    
                                                                                                    
                                                                                                    
                                                                                                    
                                                                                                    
                                                                                                    
                                                                                                    
                                                                                                    
                                                                                                    
                                                                                                    
                                                                                                    
                                                                                                    
                                                                                                    
                                                                                                    
                                                                                                    
                                                                                                    
                                                                                                    
                                                                                                    
                           
<?xpacket end="w"?></metadata>
<style type="text/css">
	.st0{fill:none;}
	.st1{fill:#5B554D;}
</style>
<rect class="st0" width="64" height="64"/>
<g>
	<g>
		<path class="st1" d="M62.1,53.7H1.9c-0.5,0-0.9-0.4-0.9-0.9V11.2c0-0.5,0.4-0.9,0.9-0.9h60.3c0.5,0,0.9,0.4,0.9,0.9v41.6
			C63,53.3,62.6,53.7,62.1,53.7z M2.7,52h58.6V12H2.7V52z"/>
	</g>
	<g>
		<path class="st1" d="M61.7,49c-0.2,0-0.4-0.1-0.5-0.2L43.1,35.1l-10.6,6.2c-0.4,0.2-0.9,0.1-1.2-0.3c-0.2-0.4-0.1-0.9,0.3-1.2
			l11.1-6.4c0.3-0.2,0.7-0.2,1,0.1l18.5,14.1c0.4,0.3,0.5,0.8,0.2,1.2C62.2,48.9,62,49,61.7,49z"/>
	</g>
	<g>
		<path class="st1" d="M40,49.6c-0.1,0-0.1,0-0.2,0c-0.5-0.1-0.8-0.6-0.7-1l3.2-14.2c0.1-0.5,0.6-0.8,1-0.7c0.5,0.1,0.8,0.6,0.7,1
			L40.8,49C40.7,49.4,40.4,49.6,40,49.6z"/>
	</g>
	<g>
		<path class="st1" d="M42.8,53.3c-0.2,0-0.4-0.1-0.6-0.3L17.4,27.7L2.5,42.4c-0.3,0.3-0.9,0.3-1.2,0c-0.3-0.3-0.3-0.9,0-1.2
			l15.5-15.3c0.2-0.2,0.3-0.3,0.6-0.2c0.2,0,0.4,0.1,0.6,0.3l25.4,26c0.3,0.3,0.3,0.9,0,1.2C43.3,53.2,43,53.3,42.8,53.3z"/>
	</g>
	<g>
		<path class="st1" d="M34.6,27.6c-3.2,0-5.7-2.6-5.7-5.7c0-3.2,2.6-5.7,5.7-5.7c3.2,0,5.7,2.6,5.7,5.7C40.3,25,37.8,27.6,34.6,27.6
			z M34.6,17.9c-2.2,0-4,1.8-4,4c0,2.2,1.8,4,4,4c2.2,0,4-1.8,4-4C38.6,19.7,36.8,17.9,34.6,17.9z"/>
	</g>
	<g>
		<path class="st1" d="M12.9,52.9c-0.1,0-0.1,0-0.2,0c-0.5-0.1-0.8-0.5-0.7-1l4.7-25.4c0.1-0.5,0.5-0.8,1-0.7c0.5,0.1,0.8,0.5,0.7,1
			l-4.7,25.4C13.6,52.6,13.3,52.9,12.9,52.9z"/>
	</g>
</g>
</svg>
