<?xml version="1.0" encoding="utf-8"?>
<!-- Generator: Adobe Illustrator 19.2.1, SVG Export Plug-In . SVG Version: 6.00 Build 0)  -->
<svg version="1.1" id="Layer_1" xmlns="http://www.w3.org/2000/svg" xmlns:xlink="http://www.w3.org/1999/xlink" x="0px" y="0px"
	 viewBox="0 0 64 64" style="enable-background:new 0 0 64 64;" xml:space="preserve">
<metadata><?xpacket begin="﻿" id="W5M0MpCehiHzreSzNTczkc9d"?>
<x:xmpmeta xmlns:x="adobe:ns:meta/" x:xmptk="Adobe XMP Core 5.6-c111 79.158366, 2015/09/25-01:12:00        ">
   <rdf:RDF xmlns:rdf="http://www.w3.org/1999/02/22-rdf-syntax-ns#">
      <rdf:Description rdf:about=""/>
   </rdf:RDF>
</x:xmpmeta>
                                                                                                    
                                                                                                    
                                                                                                    
                                                                                                    
                                                                                                    
                                                                                                    
                                                                                                    
                                                                                                    
                                                                                                    
                                                                                                    
                                                                                                    
                                                                                                    
                                                                                                    
                                                                                                    
                                                                                                    
                                                                                                    
                                                                                                    
                                                                                                    
                                                                                                    
                                                                                                    
                           
<?xpacket end="w"?></metadata>
<style type="text/css">
	.st0{fill:none;}
	.st1{fill:#5B554D;}
</style>
<rect class="st0" width="64" height="64"/>
<g>
	<g>
		<path class="st1" d="M43.7,56.1H3.5c-1.4,0-2.5-1.1-2.5-2.5V28.2c0-1.4,1.1-2.5,2.5-2.5h40.2c1.4,0,2.5,1.1,2.5,2.5v25.4
			C46.2,54.9,45.1,56.1,43.7,56.1z M3.5,27.4c-0.5,0-0.8,0.4-0.8,0.8v25.4c0,0.5,0.4,0.8,0.8,0.8h40.2c0.5,0,0.8-0.4,0.8-0.8V28.2
			c0-0.5-0.4-0.8-0.8-0.8H3.5z"/>
	</g>
	<g>
		<path class="st1" d="M60.1,46.9c-0.3,0-0.5,0-0.8-0.1l-7.5-1.9c-1.9-0.5-3.4-2.4-3.4-4.3v-7.9c0-1.9,1.5-3.8,3.4-4.3l7.5-1.9
			c1-0.2,1.9-0.1,2.7,0.5c0.7,0.6,1.1,1.4,1.1,2.4v14.4c0,1-0.4,1.8-1.1,2.4C61.4,46.7,60.7,46.9,60.1,46.9z M60.1,28.1
			c-0.1,0-0.3,0-0.5,0.1c0,0,0,0,0,0L52.2,30C51,30.3,50,31.6,50,32.7v7.9c0,1.2,1,2.4,2.1,2.7l7.5,1.9c0.5,0.1,0.9,0,1.2-0.2
			c0.3-0.2,0.5-0.6,0.5-1.1V29.5c0-0.5-0.2-0.9-0.5-1.1C60.7,28.2,60.4,28.1,60.1,28.1z M59.4,27.4L59.4,27.4L59.4,27.4z M33,23.9
			c-4.4,0-8.1-3.6-8.1-8c0-4.4,3.6-8,8.1-8c4.5,0,8.1,3.6,8.1,8C41.1,20.3,37.5,23.9,33,23.9z M33,9.6c-3.5,0-6.4,2.8-6.4,6.3
			c0,3.5,2.9,6.3,6.4,6.3c3.5,0,6.4-2.8,6.4-6.3C39.4,12.4,36.6,9.6,33,9.6z M14.3,23.9c-4.5,0-8.1-3.6-8.1-8c0-4.4,3.6-8,8.1-8
			c4.4,0,8.1,3.6,8.1,8C22.4,20.3,18.7,23.9,14.3,23.9z M14.3,9.6c-3.5,0-6.4,2.8-6.4,6.3c0,3.5,2.9,6.3,6.4,6.3
			c3.5,0,6.4-2.8,6.4-6.3C20.7,12.4,17.8,9.6,14.3,9.6z"/>
	</g>
</g>
</svg>
